<svg id="SDG5" xmlns="http://www.w3.org/2000/svg" viewBox="0 0 61.84 61.84">
    <rect fill="#ef412a" width="61.84" height="61.84" />
    <g fill="#fff">
        <path
            d="M6.2,16.93a2.14,2.14,0,0,1-.92-1.22,6.4,6.4,0,0,1-.25-2H7.21a4.36,4.36,0,0,0,.19,1.48.75.75,0,0,0,.75.46.72.72,0,0,0,.64-.3A1.64,1.64,0,0,0,9,14.6a13.62,13.62,0,0,0,.05-1.45,5,5,0,0,0-.19-1.61A.79.79,0,0,0,8.09,11c-.53,0-.86.36-1,1.07H5.15l.16-6.7h5.43V7.31H7.16L7,9.92a1.48,1.48,0,0,1,.69-.41,3.12,3.12,0,0,1,1.07-.17,2,2,0,0,1,1.82,1,5.25,5.25,0,0,1,.61,2.74A8.88,8.88,0,0,1,11,15.37,2.63,2.63,0,0,1,10,16.83a3.21,3.21,0,0,1-2,.53A3.37,3.37,0,0,1,6.2,16.93Z" />
        <path
            d="M16.48,9.54a2,2,0,0,1-.28-1.15V6.88a2,2,0,0,1,.29-1.17,1.17,1.17,0,0,1,1-.39,1.2,1.2,0,0,1,1,.33,1.42,1.42,0,0,1,.29,1v.24H18V6.61a2.06,2.06,0,0,0,0-.39A.33.33,0,0,0,17.79,6a.46.46,0,0,0-.29-.08.41.41,0,0,0-.31.1.53.53,0,0,0-.13.26,2.17,2.17,0,0,0,0,.4V8.57a1.19,1.19,0,0,0,.1.57.49.49,0,0,0,.78,0,1.31,1.31,0,0,0,.11-.6V8.11h-.49V7.59h1.23V9.88h-.54l0-.44a.78.78,0,0,1-.77.5A1,1,0,0,1,16.48,9.54Z" />
        <path d="M19.36,5.37h1.89V6H20.18v1.3H21v.57h-.84v1.5h1.08v.56h-1.9Z" />
        <path d="M21.71,5.37h.57l1.1,2.57V5.37h.68V9.88h-.55l-1.1-2.7v2.7h-.7Z" />
        <path
            d="M24.72,5.37h1.06a2,2,0,0,1,.86.15.88.88,0,0,1,.44.45,2,2,0,0,1,.13.8V8.41a2.12,2.12,0,0,1-.13.83.9.9,0,0,1-.44.48,1.75,1.75,0,0,1-.83.16H24.72ZM25.79,9.3a.7.7,0,0,0,.4-.09A.4.4,0,0,0,26.34,9a3.08,3.08,0,0,0,0-.51V6.72a2.43,2.43,0,0,0,0-.46A.36.36,0,0,0,26.17,6,.76.76,0,0,0,25.78,6h-.24V9.3Z" />
        <path d="M27.79,5.37h1.89V6H28.61v1.3h.84v.57h-.84v1.5h1.08v.56h-1.9Z" />
        <path
            d="M30.14,5.37h1.09a1.72,1.72,0,0,1,1.06.27,1.09,1.09,0,0,1,.35.93,1.76,1.76,0,0,1-.12.7.79.79,0,0,1-.43.39l.63,2.22h-.83l-.54-2.07H31V9.88h-.82ZM31.22,7.3a.64.64,0,0,0,.5-.16.76.76,0,0,0,.15-.53.81.81,0,0,0-.13-.52.62.62,0,0,0-.47-.16H31V7.3Z" />
        <path d="M16.27,12.73h1.9v.58H17.09v1.3h.85v.57h-.85v1.5h1.09v.56H16.27Z" />
        <path
            d="M20.38,17.8a3.27,3.27,0,0,1-.43-.5h-.09a1.2,1.2,0,0,1-1-.37,1.74,1.74,0,0,1-.3-1.1V14.14a1.71,1.71,0,0,1,.3-1.09,1.23,1.23,0,0,1,1-.37,1.22,1.22,0,0,1,1,.37,1.71,1.71,0,0,1,.31,1.09v1.69c0,.69-.21,1.14-.63,1.33a2.22,2.22,0,0,0,.45.44l-.15.54A1.4,1.4,0,0,1,20.38,17.8Zm-.15-1.28a1.1,1.1,0,0,0,.1-.5V14a1.1,1.1,0,0,0-.1-.5.39.39,0,0,0-.37-.16c-.19,0-.31.05-.37.16a1,1,0,0,0-.1.5V16a1,1,0,0,0,.1.5.37.37,0,0,0,.37.18A.38.38,0,0,0,20.23,16.52Z" />
        <path
            d="M22.21,17.13a.91.91,0,0,1-.39-.51,2.52,2.52,0,0,1-.11-.84v-3h.8v3.15a1.58,1.58,0,0,0,.09.6.45.45,0,0,0,.76,0,1.58,1.58,0,0,0,.09-.6V12.73h.79v3a2.52,2.52,0,0,1-.11.84.91.91,0,0,1-.39.51,1.81,1.81,0,0,1-1.53,0Z" />
        <path d="M25.54,12.73h.87l.91,4.51h-.77l-.17-1h-.79l-.18,1h-.78Zm.75,2.95L26,13.79l-.31,1.89Z" />
        <path d="M27.74,12.73h.82v3.95h1.09v.56H27.74Z" />
        <path d="M30.08,12.73h.81v4.51h-.81Z" />
        <path d="M32,13.34h-.75v-.61h2.31v.61h-.74v3.9H32Z" />
        <path d="M34.52,15.52l-.91-2.79h.76l.56,1.79.52-1.79h.76l-.91,2.79v1.72h-.78Z" />
        <path
            d="M45.11,23.36H37.39a.1.1,0,0,0-.1.1V26a.1.1,0,0,0,.1.1h3.07l-3.41,3.41a10.11,10.11,0,1,0-7.54,18v3H26.46a.1.1,0,0,0-.1.09v2.75a.1.1,0,0,0,.1.1h3.05v2.91a.09.09,0,0,0,.1.1h2.74a.09.09,0,0,0,.1-.1V53.42h3a.1.1,0,0,0,.1-.1V50.57a.1.1,0,0,0-.1-.09h-3v-3a10.11,10.11,0,0,0,6.63-15.79l3.36-3.37v2.87a.1.1,0,0,0,.1.1h2.57a.1.1,0,0,0,.1-.1V23.46a.11.11,0,0,0-.1-.1M30.81,44.94a7.45,7.45,0,1,1,7.45-7.45,7.45,7.45,0,0,1-7.45,7.45" />
        <path d="M35.36,34.44h-9a.1.1,0,0,0-.1.09v2.18a.1.1,0,0,0,.1.09h9a.1.1,0,0,0,.1-.09V34.53a.1.1,0,0,0-.1-.09" />
        <path d="M35.36,38.34h-9a.1.1,0,0,0-.1.09v2.19a.1.1,0,0,0,.1.09h9a.1.1,0,0,0,.1-.09V38.43a.1.1,0,0,0-.1-.09" />
    </g>
</svg>