<svg id="SDG6" xmlns="http://www.w3.org/2000/svg" viewBox="0 0 61.31 61.31">
    <rect fill="#00add8" width="61.31" height="61.31" />
    <path fill="#fff"
        d="M42,24.76a.28.28,0,0,0-.2-.08H19.45a.28.28,0,0,0-.2.08.29.29,0,0,0-.06.21L23,47.68a.27.27,0,0,0,.26.22h4.6l.32,3.7H26.19l4.51,4.51,4.52-4.52H33.29l.31-3.69h4.69a.25.25,0,0,0,.25-.22L42.06,25A.27.27,0,0,0,42,24.76ZM33.36,42.94a3.58,3.58,0,0,1-2.66.93A3.59,3.59,0,0,1,28,42.94a4,4,0,0,1-.5-4.83c.36-.67,2.93-4.53,3.15-4.86v0h0v0c.22.33,2.8,4.19,3.16,4.86A4,4,0,0,1,33.36,42.94Zm7.09-13.4a2.75,2.75,0,0,0-2.11.13c-2.77,1.12-4.66,1.53-7.58.61-1.83-.57-3.55-1.78-5.58-1a11.69,11.69,0,0,1-4.13.93l-.88-4.51H41.08Z" />
    <path fill="#fff"
        d="M9.18,17.6c2.21,0,3.08-1.21,3.08-3.13V12.64c0-2-.81-3.06-2.31-3.06a1.77,1.77,0,0,0-1.72,1h0V7.91c0-.75.24-1.28,1-1.28s1,.44,1,1.21v.82h1.9V8c0-1.83-.6-3.11-2.91-3.11s-3,1.41-3,3.35v6c0,1.92.84,3.31,3,3.31m-1-5.22c0-.69.33-1.13,1-1.13s1,.44,1,1.24v2.16c0,.79-.3,1.25-1,1.25s-1-.48-1-1.25Z" />
    <path fill="#fff"
        d="M17.73,9V6.5c0-.81.38-1.4,1.3-1.4s1.23.54,1.23,1.3V7h-.79V6.33c0-.32-.11-.5-.42-.5s-.45.22-.45.54V9.15c0,.32.13.54.45.54s.42-.2.42-.51V8.23h.79v.89c0,.74-.3,1.3-1.23,1.3S17.73,9.82,17.73,9Z" />
    <path fill="#fff" d="M20.74,5.16h.87V9.64h1v.71H20.74Z" />
    <path fill="#fff" d="M23.05,5.16h2.08v.71H23.92V7.36h.87v.7h-.87V9.64h1.21v.71H23.05Z" />
    <path fill="#fff" d="M25.46,10.35l1-5.19h1l1,5.19h-.89l-.16-.95h-.93l-.15.95Zm1.1-1.64h.69l-.34-2.08h0Z" />
    <path fill="#fff" d="M29.52,7.09v3.26h-.74V5.16h.86l.94,3v-3h.73v5.19h-.76Z" />
    <path fill="#fff"
        d="M35,7.15l-.49,3.2h-.82L33,5.16h.84l.41,3.3h0l.44-3.3h.71l.48,3.3h0l.4-3.3H37l-.68,5.19h-.83L35,7.15Z" />
    <path fill="#fff" d="M37,10.35l1-5.19h1l1,5.19H39l-.16-.95h-.92l-.16.95Zm1.09-1.64h.7L38.4,6.63h0Z" />
    <path fill="#fff" d="M39.8,5.16h2.31v.71H41.4v4.48h-.88V5.87H39.8Z" />
    <path fill="#fff" d="M42.52,5.16H44.6v.71H43.39V7.36h.87v.7h-.87V9.64H44.6v.71H42.52Z" />
    <path fill="#fff"
        d="M45.94,8v2.38h-.87V5.16h1.27c.88,0,1.2.44,1.2,1.17V7c0,.56-.2.89-.69,1l.83,2.35h-.92Zm0-2.1V7.49h.29a.38.38,0,0,0,.43-.43V6.3a.37.37,0,0,0-.43-.43Z" />
    <path fill="#fff" d="M17.59,17.63l1-5.2h1l1,5.2h-.89l-.16-.95h-.93l-.15.95ZM18.69,16h.69L19,13.9h0Z" />
    <path fill="#fff" d="M21.65,14.36v3.27h-.74v-5.2h.86l.94,3v-3h.73v5.2h-.76Z" />
    <path fill="#fff"
        d="M26.55,13.83v2.4c0,.8-.33,1.4-1.26,1.4H23.94v-5.2h1.35C26.22,12.43,26.55,13,26.55,13.83Zm-1.37,3.08a.45.45,0,0,0,.5-.52V13.67a.45.45,0,0,0-.5-.52h-.37v3.76Z" />
    <path fill="#fff"
        d="M28.31,16.51v-.7h.81v.71c0,.29.13.46.43.46s.4-.18.4-.46v-.2a.93.93,0,0,0-.39-.73l-.51-.51a1.75,1.75,0,0,1-.73-1.39v-.18a1.09,1.09,0,0,1,1.23-1.14c.87,0,1.21.43,1.21,1.18V14H30v-.45c0-.3-.14-.44-.42-.44a.38.38,0,0,0-.41.43v.1c0,.29.16.46.41.71l.56.55a1.73,1.73,0,0,1,.71,1.35v.25a1.13,1.13,0,0,1-1.27,1.22A1.09,1.09,0,0,1,28.31,16.51Z" />
    <path fill="#fff" d="M31.06,17.63l1-5.2h1l1,5.2h-.89L33,16.68H32l-.15.95ZM32.16,16h.69l-.34-2.08h0Z" />
    <path fill="#fff" d="M35.12,14.36v3.27h-.74v-5.2h.86l.94,3v-3h.73v5.2h-.77Z" />
    <path fill="#fff" d="M37.41,12.43h.87v5.2h-.87Z" />
    <path fill="#fff" d="M38.68,12.43H41v.72h-.71v4.48H39.4V13.15h-.72Z" />
    <path fill="#fff" d="M40.89,17.63l1-5.2h1l1,5.2H43l-.16-.95h-.93l-.15.95ZM42,16h.7l-.34-2.08h0Z" />
    <path fill="#fff" d="M43.73,12.43h2.32v.72h-.72v4.48h-.88V13.15h-.72Z" />
    <path fill="#fff" d="M46.45,12.43h.88v5.2h-.88Z" />
    <path fill="#fff"
        d="M47.83,16.29V13.77a1.32,1.32,0,1,1,2.64,0v2.52a1.32,1.32,0,1,1-2.64,0Zm1.77.13V13.64c0-.32-.14-.54-.45-.54s-.45.22-.45.54v2.78c0,.32.14.54.45.54S49.6,16.74,49.6,16.42Z" />
    <path fill="#fff" d="M51.71,14.36v3.27H51v-5.2h.86l.94,3v-3h.73v5.2h-.77Z" />
</svg>