<svg id="SDG7" xmlns="http://www.w3.org/2000/svg" viewBox="0 0 62.02 62.02">
    <rect fill="#fdb714" width="62.02" height="62.02" />
    <g fill="#fff">
        <path d="M8.3,7.12H5.09V5.39h5.42V6.87L8,17.22H5.82Z" />
        <path d="M16.22,5.39h.88L18,9.91h-.77l-.18-1.05h-.78l-.19,1.05h-.77Zm.76,3-.31-1.9-.31,1.9Z" />
        <path d="M18.35,5.39h1.86V6h-1V7.27H20v.58h-.85V9.91h-.82Z" />
        <path d="M20.54,5.39H22.4V6h-1V7.27h.85v.58h-.85V9.91h-.82Z" />
        <path
            d="M23,9.59a1.74,1.74,0,0,1-.3-1.1V6.79A1.71,1.71,0,0,1,23,5.7a1.27,1.27,0,0,1,1-.37,1.25,1.25,0,0,1,1,.37,1.71,1.71,0,0,1,.3,1.09v1.7a1.74,1.74,0,0,1-.3,1.1,1.52,1.52,0,0,1-2,0Zm1.38-.4a1.16,1.16,0,0,0,.09-.51V6.6a1,1,0,0,0-.09-.49c-.06-.12-.18-.17-.37-.17s-.31,0-.37.17a.94.94,0,0,0-.1.49V8.68a1,1,0,0,0,.1.51.38.38,0,0,0,.37.17A.4.4,0,0,0,24.34,9.19Z" />
        <path
            d="M25.77,5.39h1.09a1.72,1.72,0,0,1,1.06.27,1.09,1.09,0,0,1,.35.93,1.76,1.76,0,0,1-.12.7.77.77,0,0,1-.44.39l.64,2.23h-.83L27,7.84h-.39V9.91h-.82Zm1.08,1.93a.65.65,0,0,0,.5-.16.76.76,0,0,0,.15-.53.88.88,0,0,0-.13-.52A.59.59,0,0,0,26.89,6h-.3V7.32Z" />
        <path
            d="M28.79,5.39h1.06a2,2,0,0,1,.86.14.88.88,0,0,1,.45.46,2.19,2.19,0,0,1,.13.8V8.44a2.37,2.37,0,0,1-.13.83,1,1,0,0,1-.44.48,1.91,1.91,0,0,1-.83.16h-1.1Zm1.07,3.94a.67.67,0,0,0,.4-.09A.49.49,0,0,0,30.42,9a3.07,3.07,0,0,0,0-.5V6.74a1.76,1.76,0,0,0,0-.46.36.36,0,0,0-.16-.23.83.83,0,0,0-.4-.08h-.24V9.33Z" />
        <path d="M32.4,5.39h.88l.9,4.52h-.76l-.18-1.05h-.79l-.18,1.05h-.78Zm.75,3-.31-1.9-.3,1.9Z" />
        <path
            d="M34.52,5.39h1.12a1.61,1.61,0,0,1,1,.25,1,1,0,0,1,.34.88c0,.57-.21.89-.65,1,.52.1.78.48.78,1.12a1.33,1.33,0,0,1-.31,1,1.26,1.26,0,0,1-1,.34H34.52Zm1.11,1.84a.6.6,0,0,0,.49-.16.76.76,0,0,0,.13-.51.56.56,0,0,0-.17-.47A.92.92,0,0,0,35.51,6h-.16V7.23Zm0,2.1a.62.62,0,0,0,.51-.18.91.91,0,0,0,.14-.57A.92.92,0,0,0,36.15,8a.6.6,0,0,0-.51-.19h-.29V9.33Z" />
        <path d="M37.52,5.39h.82v4h1.1v.57H37.52Z" />
        <path d="M39.76,5.39h1.9V6H40.58v1.3h.85v.57h-.85v1.5h1.09v.57H39.76Z" />
        <path d="M44,5.39h.88l.9,4.52H45L44.8,8.86H44l-.18,1.05h-.78Zm.75,3-.31-1.9-.3,1.9Z" />
        <path d="M46.08,5.39h.58L47.76,8V5.39h.68V9.91h-.55L46.79,7.2V9.91h-.71Z" />
        <path
            d="M49,5.39h1.06a2,2,0,0,1,.86.14.83.83,0,0,1,.44.46,2,2,0,0,1,.14.8V8.44a2.14,2.14,0,0,1-.14.83.92.92,0,0,1-.43.48,2,2,0,0,1-.84.16H49Zm1.07,3.94a.7.7,0,0,0,.4-.09A.43.43,0,0,0,50.64,9a2.12,2.12,0,0,0,0-.5V6.74a1.76,1.76,0,0,0,0-.46.34.34,0,0,0-.17-.23A.76.76,0,0,0,50.08,6h-.24V9.33Z" />
        <path
            d="M15.77,17a1.79,1.79,0,0,1-.3-1.11V14.23a1.85,1.85,0,0,1,.29-1.12,1.18,1.18,0,0,1,1-.39,1.16,1.16,0,0,1,.95.34A1.48,1.48,0,0,1,18,14v.38h-.8V14a2,2,0,0,0,0-.38.36.36,0,0,0-.11-.22.4.4,0,0,0-.29-.09.39.39,0,0,0-.3.1.41.41,0,0,0-.13.24,2.17,2.17,0,0,0,0,.4v2a1.07,1.07,0,0,0,.1.55.36.36,0,0,0,.36.17.43.43,0,0,0,.28-.08.46.46,0,0,0,.12-.24,3.9,3.9,0,0,0,0-.4v-.4H18V16a1.64,1.64,0,0,1-.28,1,1.12,1.12,0,0,1-.95.36A1.15,1.15,0,0,1,15.77,17Z" />
        <path d="M18.45,12.77h.82v4h1.1v.56H18.45Z" />
        <path d="M20.69,12.77h1.9v.58H21.51v1.3h.85v.58h-.85v1.5H22.6v.56H20.69Z" />
        <path d="M23.64,12.77h.88l.91,4.52h-.77l-.18-1H23.7l-.19,1h-.77Zm.75,3-.3-1.89-.31,1.89Z" />
        <path d="M25.77,12.77h.57l1.1,2.58V12.77h.68v4.52h-.54l-1.11-2.7v2.7h-.7Z" />
        <path d="M29.94,12.77h1.9v.58H30.76v1.3h.85v.58h-.85v1.5h1.09v.56H29.94Z" />
        <path d="M32.22,12.77h.57l1.1,2.58V12.77h.68v4.52H34l-1.11-2.7v2.7h-.7Z" />
        <path d="M35.15,12.77h1.9v.58H36v1.3h.85v.58H36v1.5h1.09v.56H35.15Z" />
        <path
            d="M37.43,12.77h1.09a1.72,1.72,0,0,1,1.06.27,1.09,1.09,0,0,1,.35.93,1.73,1.73,0,0,1-.12.7.79.79,0,0,1-.43.39L40,17.29h-.83l-.54-2.07h-.39v2.07h-.82Zm1.08,1.94a.7.7,0,0,0,.5-.16.78.78,0,0,0,.15-.53A.86.86,0,0,0,39,13.5a.59.59,0,0,0-.48-.17h-.3v1.38Z" />
        <path
            d="M40.66,17a2,2,0,0,1-.29-1.15V14.28a2,2,0,0,1,.29-1.17,1.18,1.18,0,0,1,1-.39,1.21,1.21,0,0,1,1,.33,1.43,1.43,0,0,1,.29,1v.23h-.78V14a2.1,2.1,0,0,0,0-.4A.41.41,0,0,0,42,13.4a.48.48,0,0,0-.29-.08.46.46,0,0,0-.31.1.5.5,0,0,0-.13.26,2.22,2.22,0,0,0,0,.41V16a1.19,1.19,0,0,0,.1.57.4.4,0,0,0,.39.19.41.41,0,0,0,.39-.2,1.33,1.33,0,0,0,.1-.6v-.42h-.48V15h1.23v2.29H42.4l-.06-.44a.75.75,0,0,1-.76.5A1,1,0,0,1,40.66,17Z" />
        <path d="M44.05,15.57l-.91-2.8h.77l.56,1.79L45,12.77h.75l-.9,2.8v1.72h-.79Z" />
        <path
            d="M31,30.21a9.14,9.14,0,1,0,9.13,9.13A9.13,9.13,0,0,0,31,30.21m-.68,3.61a.7.7,0,0,1,.68-.64.7.7,0,0,1,.68.64V37a.69.69,0,0,1-.68.63.69.69,0,0,1-.68-.63ZM31,44a4.75,4.75,0,0,1-1.41-9.28v1.77a3.1,3.1,0,1,0,2.82,0V34.74A4.75,4.75,0,0,1,31,44" />
        <path d="M20.55,39.26a.76.76,0,0,0-.7-.74h-4a.76.76,0,0,0-.71.74.77.77,0,0,0,.71.76h4a.77.77,0,0,0,.7-.76" />
        <path d="M46.92,39.26a.75.75,0,0,0-.7-.74h-4a.76.76,0,0,0-.7.74.77.77,0,0,0,.7.76h4a.76.76,0,0,0,.7-.76" />
        <path d="M31,55.16a.76.76,0,0,0,.75-.7v-4a.75.75,0,0,0-1.5,0v4a.77.77,0,0,0,.75.7" />
        <path d="M44.83,47.16a.77.77,0,0,0-.24-1l-3.47-2a.76.76,0,0,0-.75,1.31l3.47,2a.77.77,0,0,0,1-.3" />
        <path d="M23.14,53.06a.77.77,0,0,0,1-.24l2-3.47a.75.75,0,0,0-1.31-.74l-2,3.47a.76.76,0,0,0,.3,1" />
        <path d="M39,53a.78.78,0,0,0,.3-1l-2-3.47a.75.75,0,0,0-1.3.75l2,3.47A.77.77,0,0,0,39,53" />
        <path d="M17.26,47.19a.76.76,0,0,0,1,.3l3.47-2A.76.76,0,0,0,21,44.19l-3.47,2a.76.76,0,0,0-.23,1" />
        <path d="M31,28.78a.75.75,0,0,0,.75-.7v-4a.76.76,0,0,0-.75-.7.77.77,0,0,0-.75.7v4a.76.76,0,0,0,.75.7" />
        <path
            d="M21.93,34.06a.76.76,0,0,0-.23-1l-3.47-2a.77.77,0,0,0-1,.3.79.79,0,0,0,.24,1l3.47,2a.76.76,0,0,0,1-.3" />
        <path d="M36.24,30.17a.77.77,0,0,0,1-.24l2-3.47a.75.75,0,0,0-1.31-.74l-2,3.47a.76.76,0,0,0,.3,1" />
        <path
            d="M25.81,30.18a.77.77,0,0,0,.3-1l-2-3.47a.76.76,0,0,0-1-.24.77.77,0,0,0-.3,1l2,3.46a.77.77,0,0,0,1,.24" />
        <path d="M40.12,34a.76.76,0,0,0,1,.3l3.47-2a.75.75,0,0,0-.75-1.3l-3.47,2a.76.76,0,0,0-.23,1" />
    </g>
</svg>