<svg id="SDG8" xmlns="http://www.w3.org/2000/svg" viewBox="0 0 62.23 62.23">
    <rect fill="#8f1838" width="62.23" height="62.23" />
    <g fill="#fff">
        <path
            d="M4.87,15.13a4,4,0,0,1,.35-1.73,2.27,2.27,0,0,1,1-1.08,3,3,0,0,1-.88-1.07,3.58,3.58,0,0,1-.33-1.61,3.19,3.19,0,0,1,.77-2.28,3,3,0,0,1,2.23-.81,2.88,2.88,0,0,1,2.21.8A3.14,3.14,0,0,1,11,9.59a3.77,3.77,0,0,1-.32,1.67,2.67,2.67,0,0,1-.86,1.06,2.26,2.26,0,0,1,1,1.11,4.35,4.35,0,0,1,.35,1.8,3.93,3.93,0,0,1-.76,2.58,3,3,0,0,1-2.42.92Q4.87,18.73,4.87,15.13Zm4,1.4A3.8,3.8,0,0,0,9,15.22a4,4,0,0,0-.2-1.39.75.75,0,0,0-.77-.52.76.76,0,0,0-.77.52,4.05,4.05,0,0,0-.2,1.39,3.8,3.8,0,0,0,.2,1.31.75.75,0,0,0,.77.52A.75.75,0,0,0,8.82,16.53Zm.07-6.89a2.09,2.09,0,0,0-.21-1,.68.68,0,0,0-.63-.38.7.7,0,0,0-.64.38,2,2,0,0,0-.22,1c0,1.22.28,1.83.86,1.83S8.89,10.86,8.89,9.64Z" />
        <path
            d="M15.69,6.68h1.07a2,2,0,0,1,.86.15.84.84,0,0,1,.44.45,2.07,2.07,0,0,1,.14.81V9.75a2.14,2.14,0,0,1-.14.83.9.9,0,0,1-.44.48,1.75,1.75,0,0,1-.83.16h-1.1Zm1.08,4a.66.66,0,0,0,.39-.09.4.4,0,0,0,.16-.27,2.89,2.89,0,0,0,0-.51V8a2.43,2.43,0,0,0,0-.46.37.37,0,0,0-.17-.23.76.76,0,0,0-.39-.08h-.25v3.37Z" />
        <path d="M18.66,6.68h1.9v.59H19.48v1.3h.85v.58h-.85v1.5h1.1v.57H18.66Z" />
        <path
            d="M21.13,10.89a1.91,1.91,0,0,1-.29-1.12V8.15A1.88,1.88,0,0,1,21.13,7a1.17,1.17,0,0,1,1-.39,1.16,1.16,0,0,1,.95.34,1.46,1.46,0,0,1,.28,1v.38h-.8V7.93a2,2,0,0,0,0-.38.38.38,0,0,0-.11-.23.48.48,0,0,0-.29-.08.4.4,0,0,0-.44.34,2.1,2.1,0,0,0,0,.4v2a1.24,1.24,0,0,0,.1.56.4.4,0,0,0,.37.17.38.38,0,0,0,.28-.09.46.46,0,0,0,.12-.24,2.18,2.18,0,0,0,0-.39V9.54h.8V9.9a1.61,1.61,0,0,1-.28,1,1.12,1.12,0,0,1-.95.36A1.18,1.18,0,0,1,21.13,10.89Z" />
        <path d="M23.79,6.68h1.9v.59H24.61v1.3h.86v.58h-.86v1.5h1.1v.57H23.79Z" />
        <path d="M26,6.68h.58l1.1,2.59V6.68h.69v4.54h-.55L26.75,8.51v2.71H26Z" />
        <path d="M29.39,7.29h-.75V6.68H31v.61h-.75v3.93h-.82Z" />
        <path d="M32.23,6.68h.69l.38,2.94.47-2.93h.56l.48,2.93.37-2.94h.69l-.64,4.54h-.67l-.5-3-.5,3h-.69Z" />
        <path
            d="M36.44,10.9a1.74,1.74,0,0,1-.3-1.1V8.09A1.71,1.71,0,0,1,36.44,7a1.26,1.26,0,0,1,1-.37,1.23,1.23,0,0,1,1,.37,1.65,1.65,0,0,1,.31,1.09V9.8a1.74,1.74,0,0,1-.31,1.1,1.22,1.22,0,0,1-1,.38A1.2,1.2,0,0,1,36.44,10.9Zm1.38-.4a1.15,1.15,0,0,0,.1-.51V7.9a.92.92,0,0,0-.1-.49c-.06-.12-.18-.17-.37-.17s-.31,0-.37.17a.94.94,0,0,0-.1.49V10a1,1,0,0,0,.1.51.38.38,0,0,0,.37.17A.39.39,0,0,0,37.82,10.5Z" />
        <path
            d="M39.22,6.68h1.09A1.74,1.74,0,0,1,41.38,7a1.12,1.12,0,0,1,.36.94,1.75,1.75,0,0,1-.13.7.75.75,0,0,1-.43.39l.63,2.24H41l-.54-2.08H40v2.08h-.82Zm1.09,2a.66.66,0,0,0,.5-.17A.75.75,0,0,0,41,7.93a.88.88,0,0,0-.13-.52.59.59,0,0,0-.48-.16H40V8.63Z" />
        <path d="M42.22,6.68H43v2l.9-2h.79l-.87,2,1,2.52H44l-.76-2.06L43,9.5v1.72h-.82Z" />
        <path d="M46.94,6.68h.89l.91,4.54H48l-.18-1.05H47l-.18,1.05H46Zm.76,3-.31-1.91-.31,1.91Z" />
        <path d="M49,6.68h.58l1.11,2.59V6.68h.68v4.54h-.55L49.75,8.51v2.71H49Z" />
        <path
            d="M52,6.68H53a2,2,0,0,1,.86.15.9.9,0,0,1,.45.45,2.08,2.08,0,0,1,.13.81V9.75a2.16,2.16,0,0,1-.13.83,1,1,0,0,1-.44.48,1.78,1.78,0,0,1-.83.16H52Zm1.08,4a.67.67,0,0,0,.4-.09.49.49,0,0,0,.16-.27,3.13,3.13,0,0,0,0-.51V8a1.81,1.81,0,0,0,0-.46.33.33,0,0,0-.16-.23.83.83,0,0,0-.4-.08h-.24v3.37Z" />
        <path d="M15.69,14.09h1.9v.59H16.51V16h.85v.58h-.85v1.5H17.6v.57H15.69Z" />
        <path
            d="M18.19,18.3a1.91,1.91,0,0,1-.29-1.12V15.56a1.88,1.88,0,0,1,.29-1.13,1.17,1.17,0,0,1,1-.39,1.16,1.16,0,0,1,.95.34,1.46,1.46,0,0,1,.28,1v.38h-.8v-.39a2,2,0,0,0,0-.38.38.38,0,0,0-.11-.23.48.48,0,0,0-.29-.08.4.4,0,0,0-.44.34,2.1,2.1,0,0,0,0,.4v2a1.24,1.24,0,0,0,.1.56.4.4,0,0,0,.37.17.39.39,0,0,0,.28-.09.46.46,0,0,0,.12-.24,2.18,2.18,0,0,0,0-.39V17h.8v.36a1.61,1.61,0,0,1-.28,1,1.12,1.12,0,0,1-.95.36A1.18,1.18,0,0,1,18.19,18.3Z" />
        <path
            d="M21.11,18.31a1.74,1.74,0,0,1-.3-1.1V15.5a1.71,1.71,0,0,1,.3-1.09,1.26,1.26,0,0,1,1-.37,1.23,1.23,0,0,1,1,.37,1.65,1.65,0,0,1,.31,1.09v1.71a1.74,1.74,0,0,1-.31,1.1,1.22,1.22,0,0,1-1,.38A1.2,1.2,0,0,1,21.11,18.31Zm1.38-.4a1.15,1.15,0,0,0,.1-.51V15.31a.92.92,0,0,0-.1-.49c-.06-.12-.18-.17-.37-.17s-.31,0-.37.17a.94.94,0,0,0-.1.49V17.4a1,1,0,0,0,.1.51.38.38,0,0,0,.37.17A.39.39,0,0,0,22.49,17.91Z" />
        <path d="M23.92,14.09h.58l1.11,2.59V14.09h.68v4.54h-.55l-1.11-2.71v2.71h-.71Z" />
        <path
            d="M27.09,18.31a1.74,1.74,0,0,1-.3-1.1V15.5a1.71,1.71,0,0,1,.3-1.09,1.56,1.56,0,0,1,2,0,1.71,1.71,0,0,1,.3,1.09v1.71a1.68,1.68,0,0,1-.31,1.1,1.52,1.52,0,0,1-2,0Zm1.38-.4a1,1,0,0,0,.1-.51V15.31a1,1,0,0,0-.09-.49.39.39,0,0,0-.38-.17.37.37,0,0,0-.37.17.94.94,0,0,0-.1.49V17.4a1,1,0,0,0,.1.51.39.39,0,0,0,.37.17A.38.38,0,0,0,28.47,17.91Z" />
        <path d="M30,14.09h.86l.64,3.15.67-3.15H33l.08,4.54h-.62l-.06-3.15-.65,3.15h-.5l-.65-3.16-.06,3.16H29.9Z" />
        <path d="M33.64,14.09h.82v4.54h-.82Z" />
        <path
            d="M35.27,18.3A1.84,1.84,0,0,1,35,17.18V15.56a1.81,1.81,0,0,1,.29-1.13,1.16,1.16,0,0,1,1-.39,1.17,1.17,0,0,1,.95.34,1.51,1.51,0,0,1,.28,1v.38h-.8v-.39a3.47,3.47,0,0,0,0-.38.46.46,0,0,0-.12-.23.44.44,0,0,0-.29-.08.45.45,0,0,0-.3.09.46.46,0,0,0-.13.25,2.1,2.1,0,0,0,0,.4v2a1.12,1.12,0,0,0,.1.56.4.4,0,0,0,.36.17.4.4,0,0,0,.29-.09.46.46,0,0,0,.12-.24,3.84,3.84,0,0,0,0-.39V17h.8v.36a1.67,1.67,0,0,1-.28,1,1.12,1.12,0,0,1-.95.36A1.18,1.18,0,0,1,35.27,18.3Z" />
        <path
            d="M39.42,18.29a2,2,0,0,1-.28-1.16V15.61a1.91,1.91,0,0,1,.29-1.17,1.14,1.14,0,0,1,1-.4,1.18,1.18,0,0,1,1,.34,1.42,1.42,0,0,1,.3,1v.24H40.9v-.26a1.41,1.41,0,0,0,0-.39.36.36,0,0,0-.12-.22.45.45,0,0,0-.3-.08.41.41,0,0,0-.31.1A.53.53,0,0,0,40,15a2.22,2.22,0,0,0,0,.41v1.89a1.24,1.24,0,0,0,.11.58.37.37,0,0,0,.38.19.41.41,0,0,0,.39-.2,1.23,1.23,0,0,0,.11-.61v-.42h-.48v-.52h1.23v2.3h-.54l-.06-.44a.76.76,0,0,1-.76.5A1.05,1.05,0,0,1,39.42,18.29Z" />
        <path
            d="M42.23,14.09h1.09a1.74,1.74,0,0,1,1.07.27,1.12,1.12,0,0,1,.35.94,1.73,1.73,0,0,1-.12.7.83.83,0,0,1-.44.4l.64,2.23H44l-.55-2.08h-.39v2.08h-.82ZM43.32,16a.66.66,0,0,0,.5-.17.75.75,0,0,0,.14-.53.81.81,0,0,0-.13-.52.55.55,0,0,0-.47-.16h-.31V16Z" />
        <path
            d="M45.49,18.31a1.74,1.74,0,0,1-.3-1.1V15.5a1.71,1.71,0,0,1,.3-1.09,1.55,1.55,0,0,1,2,0,1.71,1.71,0,0,1,.3,1.09v1.71a1.74,1.74,0,0,1-.3,1.1,1.23,1.23,0,0,1-1,.38A1.2,1.2,0,0,1,45.49,18.31Zm1.38-.4A1.16,1.16,0,0,0,47,17.4V15.31a1,1,0,0,0-.09-.49.37.37,0,0,0-.37-.17c-.19,0-.32,0-.38.17a1.07,1.07,0,0,0-.09.49V17.4a1.16,1.16,0,0,0,.09.51.5.5,0,0,0,.75,0Z" />
        <path d="M48.14,14.09h.69L49.2,17l.47-2.93h.56L50.72,17l.37-2.94h.68l-.63,4.54h-.67l-.51-3-.5,3h-.68Z" />
        <path d="M52.62,14.7h-.75v-.61h2.32v.61h-.74v3.93h-.83Z" />
        <path d="M54.46,14.09h.82V16h.92v-1.9H57v4.54H56.2V16.58h-.92v2.05h-.82Z" />
        <path
            d="M43,31.89l-6.36,6a1,1,0,0,0-.36.9V55.78a.37.37,0,0,0,.36.37h6.56a.38.38,0,0,0,.37-.37V32c0-.2-.16-.56-.57-.15" />
        <path
            d="M24.67,39.77l-6.35,6a1.05,1.05,0,0,0-.37.91v9.06a.38.38,0,0,0,.37.37h6.56a.37.37,0,0,0,.36-.37V39.92c0-.2-.16-.57-.57-.15" />
        <path
            d="M45.86,24.56a.16.16,0,0,0,0-.14.26.26,0,0,0-.12-.05h-.08l-4.87,1.1h-.09l-.09.05a.18.18,0,0,0,0,.27l0,.05L41.72,27l-11,11-5.09-5.1a.17.17,0,0,0-.21,0L24,34.28h0l-8.17,8.16a.17.17,0,0,0,0,.21L17.24,44a.13.13,0,0,0,.2,0L25.5,36l3.7,3.7h0l1.38,1.38a.15.15,0,0,0,.21,0L43.31,28.55l1.17,1.17a.19.19,0,0,0,.26,0,.21.21,0,0,0,0-.12v0l1.07-5Z" />
        <path
            d="M33.86,40.83l-3.08,3.1a.14.14,0,0,1-.19,0L27.8,41.08c-.51-.51-.62-.1-.62.1v14.6a.37.37,0,0,0,.36.37h6.57a.37.37,0,0,0,.36-.37V40.94c0-.2-.16-.56-.61-.11" />
    </g>
</svg>