<svg id="SDG10" xmlns="http://www.w3.org/2000/svg" viewBox="0 0 62.15 62.15">
    <rect fill="#e01a83" width="62.15" height="62.15" />
    <g fill="#fff">
        <path
            d="M5.42,7.75c-.11,0-.42.18-.94.36s-.67.23-.78.28V6.71a8.7,8.7,0,0,0,1.21-.59,4.05,4.05,0,0,0,1-.71H7.68V17.26H5.42Z" />
        <path
            d="M9.67,16.53A3.61,3.61,0,0,1,8.85,14V8.73a3.86,3.86,0,0,1,.79-2.56A3,3,0,0,1,12,5.24a3,3,0,0,1,2.37.93,3.86,3.86,0,0,1,.79,2.56V14a3.6,3.6,0,0,1-.82,2.48,2.94,2.94,0,0,1-2.34.94A3,3,0,0,1,9.67,16.53ZM12.89,14V8.77a3,3,0,0,0-.17-1.1A.67.67,0,0,0,12,7.23a.69.69,0,0,0-.72.44,3.08,3.08,0,0,0-.16,1.1V14c0,1,.29,1.48.88,1.48S12.89,15,12.89,14Z" />
        <path
            d="M19.86,9.93V5.4H21a2.2,2.2,0,0,1,.77.11.85.85,0,0,1,.48.37,1.31,1.31,0,0,1,.17.71,2.49,2.49,0,0,1-.05.5.9.9,0,0,1-.17.37.83.83,0,0,1-.33.24l.63,2.23h-.83l-.55-2.08h-.38V9.93Zm.83-2.6H21a.81.81,0,0,0,.38-.07A.41.41,0,0,0,21.54,7a1.12,1.12,0,0,0,.06-.4.84.84,0,0,0-.13-.51A.57.57,0,0,0,21,6h-.3Z" />
        <path d="M22.84,9.93V5.4h1.91V6H23.67v1.3h.85v.58h-.85v1.5h1.09v.57Z" />
        <path
            d="M25.09,9.93V5.4h1.07a2.06,2.06,0,0,1,.87.15.9.9,0,0,1,.44.46,2.06,2.06,0,0,1,.13.8V8.46a2.17,2.17,0,0,1-.13.82,1,1,0,0,1-.44.49,1.88,1.88,0,0,1-.83.16Zm.83-.58h.25a.63.63,0,0,0,.41-.1A.45.45,0,0,0,26.73,9a3.23,3.23,0,0,0,0-.48V6.75a1.78,1.78,0,0,0,0-.44.41.41,0,0,0-.16-.25.8.8,0,0,0-.4-.08h-.24Z" />
        <path
            d="M29.31,10a1.38,1.38,0,0,1-.79-.19.93.93,0,0,1-.38-.52A2.81,2.81,0,0,1,28,8.46V5.4h.81V8.56a2.61,2.61,0,0,0,0,.4.69.69,0,0,0,.13.3.4.4,0,0,0,.32.11.37.37,0,0,0,.31-.11.59.59,0,0,0,.13-.3,2.6,2.6,0,0,0,0-.4V5.4h.8V8.46a2.5,2.5,0,0,1-.11.82.88.88,0,0,1-.38.52A1.34,1.34,0,0,1,29.31,10Z" />
        <path
            d="M32.3,10a1.36,1.36,0,0,1-.78-.2,1,1,0,0,1-.39-.53A2.37,2.37,0,0,1,31,8.48V6.86a2.38,2.38,0,0,1,.11-.8.92.92,0,0,1,.39-.53,1.45,1.45,0,0,1,.78-.18,1.4,1.4,0,0,1,.74.16.85.85,0,0,1,.38.45,2.08,2.08,0,0,1,.11.69V7h-.8V6.64a1.94,1.94,0,0,0,0-.35.4.4,0,0,0-.1-.25.41.41,0,0,0-.3-.09.4.4,0,0,0-.31.1.43.43,0,0,0-.13.26,2.13,2.13,0,0,0,0,.37v2a2.18,2.18,0,0,0,0,.41A.49.49,0,0,0,32,9.3a.47.47,0,0,0,.28.08.35.35,0,0,0,.29-.1A.42.42,0,0,0,32.71,9a2.06,2.06,0,0,0,0-.36V8.25h.8v.36a2.27,2.27,0,0,1-.11.72.89.89,0,0,1-.37.48A1.34,1.34,0,0,1,32.3,10Z" />
        <path d="M34,9.93V5.4h1.9V6H34.79v1.3h.84v.58h-.84v1.5h1.08v.57Z" />
        <path
            d="M36.21,9.93V5.4h1.07a2,2,0,0,1,.86.15.86.86,0,0,1,.44.46,2.06,2.06,0,0,1,.13.8V8.46a2.17,2.17,0,0,1-.13.82.94.94,0,0,1-.43.49,2,2,0,0,1-.84.16ZM37,9.35h.25a.65.65,0,0,0,.41-.1A.45.45,0,0,0,37.85,9a3.4,3.4,0,0,0,0-.48V6.75a2.59,2.59,0,0,0,0-.44.38.38,0,0,0-.17-.25A.76.76,0,0,0,37.28,6H37Z" />
        <path d="M19.89,17.33V12.8h.81v4.53Z" />
        <path d="M21.26,17.33V12.8h.57l1.1,2.58V12.8h.69v4.53h-.55L22,14.62v2.71Z" />
        <path d="M24.16,17.33V12.8h1.9v.58H25v1.3h.84v.58H25v1.5h1.08v.57Z" />
        <path
            d="M28.62,18.23a1.31,1.31,0,0,1-.3-.2,3.07,3.07,0,0,1-.32-.31,2,2,0,0,1-.26-.34h-.1a1.44,1.44,0,0,1-.77-.18,1,1,0,0,1-.41-.51,2.41,2.41,0,0,1-.12-.8V14.21a2.3,2.3,0,0,1,.12-.79,1,1,0,0,1,.41-.5,1.85,1.85,0,0,1,1.55,0,1,1,0,0,1,.4.5,2.08,2.08,0,0,1,.13.79v1.7a2.74,2.74,0,0,1-.06.59,1.33,1.33,0,0,1-.21.45.88.88,0,0,1-.36.3,1.1,1.1,0,0,0,.15.16l.15.16.15.12Zm-1-1.45a.38.38,0,0,0,.44-.34,1.72,1.72,0,0,0,0-.34V14a1.72,1.72,0,0,0,0-.34.47.47,0,0,0-.13-.24.46.46,0,0,0-.31-.09.41.41,0,0,0-.3.09.48.48,0,0,0-.14.24,1.72,1.72,0,0,0,0,.34V16.1a1.72,1.72,0,0,0,0,.34.47.47,0,0,0,.14.25A.41.41,0,0,0,27.64,16.78Z" />
        <path
            d="M30.66,17.39a1.41,1.41,0,0,1-.78-.18,1,1,0,0,1-.39-.53,2.81,2.81,0,0,1-.11-.82V12.8h.81V16a2.6,2.6,0,0,0,0,.4.59.59,0,0,0,.13.3.38.38,0,0,0,.31.11.4.4,0,0,0,.32-.11.68.68,0,0,0,.12-.3,2.6,2.6,0,0,0,0-.4V12.8h.8v3.06a2.83,2.83,0,0,1-.1.82,1,1,0,0,1-.39.53A1.41,1.41,0,0,1,30.66,17.39Z" />
        <path d="M32.19,17.33l.9-4.53H34l.9,4.53h-.76l-.18-1h-.79l-.19,1Zm1-1.57h.62l-.31-1.91Z" />
        <path d="M35.17,17.33V12.8H36v4h1.09v.57Z" />
        <path d="M37.38,17.33V12.8h.81v4.53Z" />
        <path d="M39.2,17.33V13.41h-.72V12.8h2.26v.61H40v3.92Z" />
        <path d="M41,17.33V12.8h.82v4.53Z" />
        <path d="M42.4,17.33V12.8h1.9v.58H43.23v1.3h.84v.58h-.84v1.5h1.08v.57Z" />
        <path
            d="M45.79,17.39a1.29,1.29,0,0,1-.68-.16,1,1,0,0,1-.42-.47,2,2,0,0,1-.15-.75l.71-.14a2.05,2.05,0,0,0,.06.46.69.69,0,0,0,.16.31.38.38,0,0,0,.29.11.33.33,0,0,0,.29-.12.56.56,0,0,0,.08-.3.83.83,0,0,0-.13-.49,2.1,2.1,0,0,0-.36-.38l-.57-.5a1.64,1.64,0,0,1-.38-.46,1.22,1.22,0,0,1-.15-.63,1.07,1.07,0,0,1,.32-.83,1.16,1.16,0,0,1,.85-.29,1.19,1.19,0,0,1,.53.1.76.76,0,0,1,.34.27,1,1,0,0,1,.19.39,2.31,2.31,0,0,1,.08.47l-.71.12a2.06,2.06,0,0,0,0-.38.49.49,0,0,0-.12-.26.37.37,0,0,0-.28-.1.35.35,0,0,0-.28.12.49.49,0,0,0-.1.3.71.71,0,0,0,.1.38,1.22,1.22,0,0,0,.27.3l.57.5a2.53,2.53,0,0,1,.48.55,1.45,1.45,0,0,1,.2.77,1.08,1.08,0,0,1-.15.57,1,1,0,0,1-.39.4A1.27,1.27,0,0,1,45.79,17.39Z" />
        <path
            d="M36.84,40.78H25.4a.13.13,0,0,0-.13.14v3.44a.13.13,0,0,0,.13.14H36.84a.13.13,0,0,0,.13-.14V40.92a.13.13,0,0,0-.13-.14" />
        <path
            d="M36.84,33.46H25.4a.13.13,0,0,0-.13.14V37a.13.13,0,0,0,.13.14H36.84A.13.13,0,0,0,37,37V33.6a.13.13,0,0,0-.13-.14" />
        <path
            d="M36.68,28.26l-5.49-5.49a.1.1,0,0,0-.14,0l-5.49,5.49a.09.09,0,0,0,.06.16h11A.09.09,0,0,0,36.68,28.26Z" />
        <path d="M41.84,44.54l5.49-5.49a.1.1,0,0,0,0-.14l-5.49-5.49a.1.1,0,0,0-.17.07v11A.1.1,0,0,0,41.84,44.54Z" />
        <path d="M25.56,49.7l5.49,5.49a.1.1,0,0,0,.14,0l5.49-5.49a.09.09,0,0,0-.07-.16h-11A.09.09,0,0,0,25.56,49.7Z" />
        <path d="M20.4,33.42l-5.49,5.49a.1.1,0,0,0,0,.14l5.49,5.49a.09.09,0,0,0,.16-.07v-11A.09.09,0,0,0,20.4,33.42Z" />
    </g>
</svg>