<svg id="SDG12" xmlns="http://www.w3.org/2000/svg" viewBox="0 0 62.08 62.08">
    <rect fill="#cd8b2a" width="62.08" height="62.08" />
    <g fill="#fff">
        <path
            d="M5.32,7.74a8.25,8.25,0,0,1-.93.36c-.41.14-.67.23-.78.28V6.7a10.48,10.48,0,0,0,1.21-.58,4.31,4.31,0,0,0,1-.72H7.59V17.24H5.32Z" />
        <path
            d="M8.84,15.64l2.87-4.42.17-.27a10.61,10.61,0,0,0,.82-1.39A2.85,2.85,0,0,0,13,8.32a1.51,1.51,0,0,0-.22-.87.74.74,0,0,0-.63-.3.87.87,0,0,0-.85.47A2.86,2.86,0,0,0,11,8.91v.54H8.84V8.86a4.11,4.11,0,0,1,.79-2.64,3,3,0,0,1,2.44-1,3.15,3.15,0,0,1,2.34.81,3.16,3.16,0,0,1,.79,2.31A4.12,4.12,0,0,1,15,9.64a5.47,5.47,0,0,1-.49,1.06c-.18.32-.47.76-.86,1.33l-2.28,3.42h3.52v1.79H8.84Z" />
        <path
            d="M19.75,9.92V5.39h1.09a2.46,2.46,0,0,1,.77.11.9.9,0,0,1,.48.37,1.34,1.34,0,0,1,.17.72,2.46,2.46,0,0,1-.05.49,1.05,1.05,0,0,1-.17.37.8.8,0,0,1-.34.24l.64,2.23h-.83L21,7.84h-.38V9.92Zm.83-2.6h.26a.81.81,0,0,0,.38-.07.36.36,0,0,0,.2-.22.88.88,0,0,0,.07-.39.92.92,0,0,0-.13-.52A.57.57,0,0,0,20.88,6h-.3Z" />
        <path d="M22.71,9.92V5.39h1.9V6H23.54v1.3h.84v.58h-.84v1.5h1.08v.57Z" />
        <path
            d="M26.07,10a1.39,1.39,0,0,1-.68-.16A1,1,0,0,1,25,9.35a1.81,1.81,0,0,1-.16-.75l.71-.14a2,2,0,0,0,.07.46.54.54,0,0,0,.16.31.4.4,0,0,0,.29.11.32.32,0,0,0,.28-.12.48.48,0,0,0,.08-.3.83.83,0,0,0-.13-.49,2.1,2.1,0,0,0-.36-.38l-.57-.5A1.64,1.64,0,0,1,25,7.09a1.22,1.22,0,0,1-.14-.63,1.06,1.06,0,0,1,.31-.83A1.22,1.22,0,0,1,26,5.34a1.24,1.24,0,0,1,.54.1.73.73,0,0,1,.33.27,1.09,1.09,0,0,1,.19.39,2.43,2.43,0,0,1,.08.47l-.71.12a2.11,2.11,0,0,0,0-.38.58.58,0,0,0-.13-.26A.37.37,0,0,0,26,6a.34.34,0,0,0-.28.12.44.44,0,0,0-.1.3.71.71,0,0,0,.09.38,1.91,1.91,0,0,0,.28.31l.56.49A2.29,2.29,0,0,1,27,8.1a1.45,1.45,0,0,1,.2.77,1.1,1.1,0,0,1-.15.57.92.92,0,0,1-.39.39A1.16,1.16,0,0,1,26.07,10Z" />
        <path
            d="M27.48,9.92V5.39h1.33a1.29,1.29,0,0,1,.66.15.91.91,0,0,1,.38.44,1.79,1.79,0,0,1,.12.7,1.47,1.47,0,0,1-.15.71.86.86,0,0,1-.43.39,1.56,1.56,0,0,1-.64.12h-.44v2Zm.83-2.6h.31A.82.82,0,0,0,29,7.26a.33.33,0,0,0,.17-.21,1.25,1.25,0,0,0,.05-.38,1.49,1.49,0,0,0,0-.4A.34.34,0,0,0,29,6,.88.88,0,0,0,28.62,6h-.31Z" />
        <path
            d="M31.49,10a1.44,1.44,0,0,1-.77-.18,1,1,0,0,1-.41-.52,2.3,2.3,0,0,1-.12-.79V6.8A2.3,2.3,0,0,1,30.31,6a1.06,1.06,0,0,1,.41-.5,1.83,1.83,0,0,1,1.54,0,1.06,1.06,0,0,1,.41.5,2.3,2.3,0,0,1,.12.79V8.5a2.28,2.28,0,0,1-.12.78,1.11,1.11,0,0,1-.41.52A1.44,1.44,0,0,1,31.49,10Zm0-.61a.43.43,0,0,0,.3-.09A.4.4,0,0,0,31.92,9a1.18,1.18,0,0,0,0-.34V6.61a1.18,1.18,0,0,0,0-.34A.41.41,0,0,0,31.79,6a.43.43,0,0,0-.3-.09.45.45,0,0,0-.3.09.41.41,0,0,0-.13.24,1.18,1.18,0,0,0,0,.34V8.69a1.72,1.72,0,0,0,0,.34.4.4,0,0,0,.44.34Z" />
        <path d="M33.24,9.92V5.39h.57L34.91,8V5.39h.68V9.92h-.54L33.94,7.21V9.92Z" />
        <path
            d="M37.25,10a1.39,1.39,0,0,1-.68-.16,1,1,0,0,1-.41-.47A1.81,1.81,0,0,1,36,8.6l.71-.14a2,2,0,0,0,.07.46.54.54,0,0,0,.16.31.4.4,0,0,0,.29.11.32.32,0,0,0,.28-.12.48.48,0,0,0,.08-.3.83.83,0,0,0-.13-.49,2.1,2.1,0,0,0-.36-.38l-.57-.5a1.64,1.64,0,0,1-.38-.46A1.22,1.22,0,0,1,36,6.46a1.06,1.06,0,0,1,.31-.83,1.22,1.22,0,0,1,.85-.29,1.24,1.24,0,0,1,.54.1.73.73,0,0,1,.33.27,1.09,1.09,0,0,1,.19.39,2.43,2.43,0,0,1,.08.47l-.71.12a2.11,2.11,0,0,0,0-.38.58.58,0,0,0-.13-.26.37.37,0,0,0-.27-.1.34.34,0,0,0-.28.12.44.44,0,0,0-.1.3.71.71,0,0,0,.09.38,1.91,1.91,0,0,0,.28.31l.56.49a2.29,2.29,0,0,1,.48.55,1.45,1.45,0,0,1,.2.77,1.1,1.1,0,0,1-.15.57.92.92,0,0,1-.39.39A1.16,1.16,0,0,1,37.25,10Z" />
        <path d="M38.68,9.92V5.39h.82V9.92Z" />
        <path
            d="M40,9.92V5.39h1.11a2.38,2.38,0,0,1,.55.06,1.14,1.14,0,0,1,.42.18,1,1,0,0,1,.27.36,1.53,1.53,0,0,1,.09.56A1.33,1.33,0,0,1,42.4,7a.73.73,0,0,1-.22.31.83.83,0,0,1-.37.16,1,1,0,0,1,.45.18,1,1,0,0,1,.26.37,1.57,1.57,0,0,1,.09.56,1.7,1.7,0,0,1-.09.57.93.93,0,0,1-.24.41.88.88,0,0,1-.39.25,1.6,1.6,0,0,1-.56.09Zm.83-2.68h.28a.81.81,0,0,0,.38-.07.38.38,0,0,0,.18-.23,1,1,0,0,0,.06-.38.75.75,0,0,0-.08-.37A.42.42,0,0,0,41.43,6,1.58,1.58,0,0,0,41,6h-.16Zm0,2.09h.31a.6.6,0,0,0,.51-.18.93.93,0,0,0,.13-.56,1.33,1.33,0,0,0-.06-.44.55.55,0,0,0-.21-.26.89.89,0,0,0-.4-.08h-.28Z" />
        <path d="M43,9.92V5.39h.83v4h1.1v.57Z" />
        <path d="M45.14,9.92V5.39H47V6H46v1.3h.85v.58H46v1.5h1.09v.57Z" />
        <path
            d="M21,17.37a1.36,1.36,0,0,1-.78-.2,1,1,0,0,1-.39-.53,2.3,2.3,0,0,1-.11-.78V14.25a2.48,2.48,0,0,1,.11-.81.9.9,0,0,1,.39-.52,1.36,1.36,0,0,1,.78-.19,1.53,1.53,0,0,1,.74.16.89.89,0,0,1,.37.46,1.76,1.76,0,0,1,.12.68v.38h-.8V14a1.83,1.83,0,0,0,0-.34.44.44,0,0,0-.1-.25.41.41,0,0,0-.3-.09.44.44,0,0,0-.31.09.49.49,0,0,0-.13.27,2.05,2.05,0,0,0,0,.37v2a2.18,2.18,0,0,0,0,.41.42.42,0,0,0,.15.24.44.44,0,0,0,.28.08.35.35,0,0,0,.29-.1.48.48,0,0,0,.11-.26c0-.1,0-.23,0-.36v-.41h.8V16a2.25,2.25,0,0,1-.11.71.94.94,0,0,1-.37.48A1.34,1.34,0,0,1,21,17.37Z" />
        <path
            d="M23.83,17.37a1.4,1.4,0,0,1-.76-.18,1,1,0,0,1-.41-.51,2.41,2.41,0,0,1-.12-.8V14.19a2.24,2.24,0,0,1,.12-.78.93.93,0,0,1,.41-.5,1.4,1.4,0,0,1,.76-.18,1.45,1.45,0,0,1,.78.18,1,1,0,0,1,.4.5,2,2,0,0,1,.13.78v1.7a2.06,2.06,0,0,1-.13.78,1,1,0,0,1-.4.52A1.45,1.45,0,0,1,23.83,17.37Zm0-.61a.46.46,0,0,0,.31-.09.47.47,0,0,0,.13-.24,1.9,1.9,0,0,0,0-.35V14a1.72,1.72,0,0,0,0-.34.47.47,0,0,0-.13-.24.46.46,0,0,0-.31-.08.4.4,0,0,0-.29.08.42.42,0,0,0-.14.24,1.72,1.72,0,0,0,0,.34v2.08a1.9,1.9,0,0,0,0,.35.41.41,0,0,0,.13.24A.45.45,0,0,0,23.83,16.76Z" />
        <path d="M25.58,17.31V12.78h.58l1.1,2.58V12.78h.68v4.53h-.55l-1.1-2.71v2.71Z" />
        <path
            d="M29.6,17.37a1.29,1.29,0,0,1-.68-.16,1,1,0,0,1-.42-.47,2,2,0,0,1-.15-.75l.71-.14a2,2,0,0,0,.06.46.69.69,0,0,0,.16.31.38.38,0,0,0,.29.11.34.34,0,0,0,.29-.12.56.56,0,0,0,.08-.3.91.91,0,0,0-.13-.49,2.48,2.48,0,0,0-.36-.38l-.57-.5a1.64,1.64,0,0,1-.38-.46,1.22,1.22,0,0,1-.15-.63,1.08,1.08,0,0,1,.32-.83,1.41,1.41,0,0,1,1.38-.19.93.93,0,0,1,.34.27,1.41,1.41,0,0,1,.19.39,2.42,2.42,0,0,1,.07.47l-.7.12a2.18,2.18,0,0,0-.05-.38.46.46,0,0,0-.13-.26.37.37,0,0,0-.27-.09.35.35,0,0,0-.28.12.49.49,0,0,0-.1.3.7.7,0,0,0,.1.37,1.45,1.45,0,0,0,.27.31l.57.49a2.33,2.33,0,0,1,.47.56,1.33,1.33,0,0,1,.2.76,1.07,1.07,0,0,1-.14.57,1,1,0,0,1-.4.4A1.22,1.22,0,0,1,29.6,17.37Z" />
        <path
            d="M32.29,17.37a1.45,1.45,0,0,1-.78-.18,1,1,0,0,1-.39-.53,2.83,2.83,0,0,1-.1-.82V12.78h.8v3.16a2.6,2.6,0,0,0,0,.4.59.59,0,0,0,.13.3.39.39,0,0,0,.31.12.39.39,0,0,0,.32-.12.69.69,0,0,0,.13-.3,2.6,2.6,0,0,0,0-.4V12.78h.8v3.06a2.81,2.81,0,0,1-.11.82,1,1,0,0,1-.38.53A1.47,1.47,0,0,1,32.29,17.37Z" />
        <path d="M34,17.31l.08-4.53H35l.64,3.14.67-3.14h.83l.08,4.53h-.61l-.07-3.15-.64,3.15h-.5l-.65-3.16-.07,3.16Z" />
        <path
            d="M37.66,17.31V12.78H39a1.29,1.29,0,0,1,.66.15.91.91,0,0,1,.38.44,1.83,1.83,0,0,1,.12.7,1.47,1.47,0,0,1-.15.71.86.86,0,0,1-.43.39,1.41,1.41,0,0,1-.64.13h-.44v2Zm.83-2.59h.31a.8.8,0,0,0,.35-.07.33.33,0,0,0,.17-.21,1.25,1.25,0,0,0,0-.38,1.54,1.54,0,0,0,0-.4.3.3,0,0,0-.15-.22.74.74,0,0,0-.38-.08h-.31Z" />
        <path d="M40.89,17.31V13.39h-.72v-.61h2.26v.61h-.71v3.92Z" />
        <path d="M42.69,17.31V12.78h.82v4.53Z" />
        <path
            d="M45.27,17.37a1.4,1.4,0,0,1-.76-.18,1,1,0,0,1-.41-.51,2.39,2.39,0,0,1-.13-.8V14.19a2.23,2.23,0,0,1,.13-.78.93.93,0,0,1,.41-.5,1.72,1.72,0,0,1,1.53,0,.93.93,0,0,1,.41.5,2,2,0,0,1,.13.78v1.7a2.06,2.06,0,0,1-.13.78,1,1,0,0,1-.41.52A1.39,1.39,0,0,1,45.27,17.37Zm0-.61a.46.46,0,0,0,.31-.09.55.55,0,0,0,.13-.24,1.9,1.9,0,0,0,0-.35V14a1.72,1.72,0,0,0,0-.34.55.55,0,0,0-.13-.24.46.46,0,0,0-.31-.08.45.45,0,0,0-.3.08.47.47,0,0,0-.13.24,1.72,1.72,0,0,0,0,.34v2.08a1.9,1.9,0,0,0,0,.35.41.41,0,0,0,.13.24A.45.45,0,0,0,45.27,16.76Z" />
        <path d="M47,17.31V12.78h.57l1.11,2.58V12.78h.68v4.53h-.55L47.72,14.6v2.71Z" />
        <path d="M19.52,24.7l.91-4.53h.88l.91,4.53h-.77l-.18-1h-.78l-.19,1Zm1.05-1.57h.61l-.3-1.9Z" />
        <path d="M22.48,24.7V20.17h.58l1.1,2.59V20.17h.68V24.7h-.55L23.18,22v2.7Z" />
        <path
            d="M25.36,24.7V20.17h1.07a2,2,0,0,1,.86.16.86.86,0,0,1,.44.46,2,2,0,0,1,.13.79v1.66a2.2,2.2,0,0,1-.13.82.9.9,0,0,1-.44.48,1.75,1.75,0,0,1-.83.16Zm.82-.57h.26a.6.6,0,0,0,.4-.11.36.36,0,0,0,.15-.29,3.09,3.09,0,0,0,0-.47V21.53a1.73,1.73,0,0,0,0-.44.35.35,0,0,0-.16-.25.76.76,0,0,0-.39-.08h-.25Z" />
        <path
            d="M29.49,24.7V20.17h1.33a1.29,1.29,0,0,1,.66.16.89.89,0,0,1,.38.43,1.86,1.86,0,0,1,.12.7,1.47,1.47,0,0,1-.15.71,1,1,0,0,1-.42.4,1.59,1.59,0,0,1-.64.12h-.45v2Zm.83-2.59h.31A.68.68,0,0,0,31,22a.31.31,0,0,0,.17-.2,1.09,1.09,0,0,0,.05-.39,2.25,2.25,0,0,0,0-.4.37.37,0,0,0-.16-.22.75.75,0,0,0-.38-.07h-.31Z" />
        <path
            d="M32.25,24.7V20.17h1.08a2.41,2.41,0,0,1,.77.11.9.9,0,0,1,.49.38,1.41,1.41,0,0,1,.16.71,2.38,2.38,0,0,1,0,.49.84.84,0,0,1-.17.37.68.68,0,0,1-.33.24l.63,2.23H34l-.55-2.07h-.38V24.7Zm.82-2.59h.26a1,1,0,0,0,.38-.07.4.4,0,0,0,.21-.23,1.07,1.07,0,0,0,.06-.39.8.8,0,0,0-.13-.51.56.56,0,0,0-.47-.17h-.31Z" />
        <path
            d="M36.42,24.76a1.38,1.38,0,0,1-.76-.18,1,1,0,0,1-.41-.51,2.33,2.33,0,0,1-.13-.79v-1.7a2.27,2.27,0,0,1,.13-.78.93.93,0,0,1,.41-.5,1.38,1.38,0,0,1,.76-.18,1.39,1.39,0,0,1,.77.18.93.93,0,0,1,.41.5,2.06,2.06,0,0,1,.13.78v1.7a2.15,2.15,0,0,1-.13.79,1,1,0,0,1-.41.51A1.39,1.39,0,0,1,36.42,24.76Zm0-.61a.46.46,0,0,0,.31-.09.55.55,0,0,0,.13-.24,1.87,1.87,0,0,0,0-.34V21.39a1.79,1.79,0,0,0,0-.34.55.55,0,0,0-.13-.24.52.52,0,0,0-.31-.08.51.51,0,0,0-.3.08.47.47,0,0,0-.13.24,1.79,1.79,0,0,0,0,.34v2.09a1.87,1.87,0,0,0,0,.34.41.41,0,0,0,.13.24A.45.45,0,0,0,36.42,24.15Z" />
        <path
            d="M38.17,24.7V20.17h1.07a2,2,0,0,1,.86.16.86.86,0,0,1,.44.46,2,2,0,0,1,.13.79v1.66a2.2,2.2,0,0,1-.13.82.92.92,0,0,1-.43.48,1.82,1.82,0,0,1-.84.16Zm.83-.57h.25a.65.65,0,0,0,.41-.11.43.43,0,0,0,.15-.29c0-.13,0-.28,0-.47V21.53a2.51,2.51,0,0,0,0-.44.39.39,0,0,0-.17-.25.76.76,0,0,0-.39-.08H39Z" />
        <path
            d="M42.35,24.76a1.45,1.45,0,0,1-.78-.18,1,1,0,0,1-.38-.53,2.73,2.73,0,0,1-.11-.81V20.17h.8v3.16a2.5,2.5,0,0,0,0,.4A.52.52,0,0,0,42,24a.4.4,0,0,0,.31.12.39.39,0,0,0,.32-.12.6.6,0,0,0,.13-.3,2.5,2.5,0,0,0,0-.4V20.17h.8v3.07a2.73,2.73,0,0,1-.11.81,1,1,0,0,1-.38.53A1.47,1.47,0,0,1,42.35,24.76Z" />
        <path
            d="M45.33,24.76a1.34,1.34,0,0,1-.78-.19,1,1,0,0,1-.4-.54,2.57,2.57,0,0,1-.11-.78V21.64a2.78,2.78,0,0,1,.11-.81,1,1,0,0,1,.4-.52,1.42,1.42,0,0,1,.78-.19,1.49,1.49,0,0,1,.73.16.91.91,0,0,1,.38.46,2.08,2.08,0,0,1,.11.69v.38h-.79v-.39a3.49,3.49,0,0,0,0-.35.45.45,0,0,0-.11-.25.54.54,0,0,0-.61,0,.42.42,0,0,0-.12.26,2.05,2.05,0,0,0,0,.37v2a1.49,1.49,0,0,0,0,.4.36.36,0,0,0,.14.24.41.41,0,0,0,.28.08.41.41,0,0,0,.3-.09.55.55,0,0,0,.1-.26,2.05,2.05,0,0,0,0-.37V23h.79v.37a2.2,2.2,0,0,1-.11.71.91.91,0,0,1-.37.49A1.37,1.37,0,0,1,45.33,24.76Z" />
        <path d="M47.41,24.7V20.78h-.72v-.61H49v.61h-.71V24.7Z" />
        <path d="M49.22,24.7V20.17H50V24.7Z" />
        <path
            d="M51.79,24.76a1.4,1.4,0,0,1-.76-.18,1,1,0,0,1-.41-.51,2.33,2.33,0,0,1-.13-.79v-1.7a2.27,2.27,0,0,1,.13-.78.93.93,0,0,1,.41-.5,1.72,1.72,0,0,1,1.53,0,.93.93,0,0,1,.41.5,2.06,2.06,0,0,1,.13.78v1.7a2.15,2.15,0,0,1-.13.79,1,1,0,0,1-.41.51A1.39,1.39,0,0,1,51.79,24.76Zm0-.61a.46.46,0,0,0,.31-.09.55.55,0,0,0,.13-.24,1.87,1.87,0,0,0,0-.34V21.39a1.79,1.79,0,0,0,0-.34.55.55,0,0,0-.13-.24.52.52,0,0,0-.31-.08.51.51,0,0,0-.3.08.47.47,0,0,0-.13.24,1.79,1.79,0,0,0,0,.34v2.09a1.87,1.87,0,0,0,0,.34.41.41,0,0,0,.13.24A.45.45,0,0,0,51.79,24.15Z" />
        <path d="M53.54,24.7V20.17h.57l1.11,2.59V20.17h.68V24.7h-.55L54.24,22v2.7Z" />
        <path
            d="M46.86,32.21a10.24,10.24,0,0,0-7.74-1.9l-.15,0c-1.54.36-4,1-6.87,4.53l0,.06,0,0a.24.24,0,0,0-.05.14.27.27,0,0,0,0,.12l.07.11c.36.6.82,1.38,1.2,2.09,0,0,0,0,0,0a.25.25,0,0,0,.22.14.28.28,0,0,0,.17-.07l0-.08c2.55-3.52,4.55-4,5.9-4.32l.17,0a7.41,7.41,0,0,1,5.3,1.36c1.51,1.19,2.27,3.09,2.27,5.63,0,4.26-2.07,5.93-3.81,6.58a7.1,7.1,0,0,1-5.3-.35l-.12-.06c-1.48-.64-3.69-2-5.77-6.16-4.2-8.43-7.71-9.23-10-9.75l-.12,0a10,10,0,0,0-7.62,1.89c-1.51,1.21-3.31,3.55-3.31,7.86a9.23,9.23,0,0,0,1.93,6.19,9.38,9.38,0,0,0,9.42,3.26,9.11,9.11,0,0,0,3.7-1.72L27.65,49a.22.22,0,0,0,.3,0,.21.21,0,0,0,.05-.15h0l1-5.88v-.06a.24.24,0,0,0-.07-.16.19.19,0,0,0-.14-.05h-.11L23,44.24l-.1,0a.24.24,0,0,0-.11.06.22.22,0,0,0,0,.31l.06.06,1.26,1.14a5.86,5.86,0,0,1-2.06.87,6.58,6.58,0,0,1-6.58-2.13l0,0a6.45,6.45,0,0,1-1.35-4.47c0-2.55.75-4.44,2.23-5.63a7.23,7.23,0,0,1,5.21-1.34l.12,0c1.91.43,4.52,1,8.11,8.24,1.87,3.75,4.21,6.2,7.15,7.49a10.37,10.37,0,0,0,4.48,1,9,9,0,0,0,3.12-.55c1.7-.64,5.67-2.82,5.67-9.26,0-4.31-1.83-6.66-3.36-7.87" />
    </g>
</svg>