<svg id="SDG16" xmlns="http://www.w3.org/2000/svg" viewBox="0 0 62.06 62.06">
    <rect fill="#00558a" width="62.06" height="62.06" />
    <g fill="#fff">
        <path
            d="M5.32,7.74c-.11,0-.42.18-.93.36s-.67.23-.78.28V6.7a9.28,9.28,0,0,0,1.21-.59,4.26,4.26,0,0,0,1-.71H7.59V17.23H5.32Z" />
        <path
            d="M9.61,16.34a4.66,4.66,0,0,1-.78-2.83V9.3a5.38,5.38,0,0,1,.7-3A2.76,2.76,0,0,1,12,5.25,3,3,0,0,1,14.28,6,3.19,3.19,0,0,1,15,8.25l0,.2H12.86A2.86,2.86,0,0,0,12.7,7.3.68.68,0,0,0,12,7a.69.69,0,0,0-.56.22,1.28,1.28,0,0,0-.28.73,9,9,0,0,0-.08,1.44v1.2a1.24,1.24,0,0,1,.61-.5,2.3,2.3,0,0,1,1-.19,2.1,2.1,0,0,1,1.9.92,4.5,4.5,0,0,1,.59,2.49,5.34,5.34,0,0,1-.73,3A2.74,2.74,0,0,1,12,17.39,2.79,2.79,0,0,1,9.61,16.34Zm3.13-1.12a4.82,4.82,0,0,0,.18-1.55c0-.5,0-.88,0-1.16a1.16,1.16,0,0,0-.25-.65.7.7,0,0,0-.6-.25.94.94,0,0,0-.55.16,1.21,1.21,0,0,0-.37.38V14q0,1.68.93,1.68A.7.7,0,0,0,12.74,15.22Z" />
        <path
            d="M19.84,9.91V5.39h1.33a1.29,1.29,0,0,1,.66.15A.89.89,0,0,1,22.2,6a1.78,1.78,0,0,1,.12.69,1.48,1.48,0,0,1-.15.72.88.88,0,0,1-.42.39,1.56,1.56,0,0,1-.64.12h-.45v2Zm.82-2.59H21a.8.8,0,0,0,.34-.06.34.34,0,0,0,.18-.21,1.25,1.25,0,0,0,.05-.38,2,2,0,0,0,0-.4A.39.39,0,0,0,21.35,6,.71.71,0,0,0,21,6h-.32Z" />
        <path d="M22.65,9.91V5.39h1.89V6H23.47v1.3h.85v.58h-.85V9.34h1.09v.57Z" />
        <path d="M24.7,9.91l.9-4.52h.88l.91,4.52h-.77l-.18-1h-.78l-.19,1Zm1-1.57h.61l-.3-1.9Z" />
        <path
            d="M28.9,10a1.36,1.36,0,0,1-.78-.2,1.06,1.06,0,0,1-.4-.53,2.67,2.67,0,0,1-.11-.78V6.85a2.71,2.71,0,0,1,.11-.8,1,1,0,0,1,.4-.53,1.45,1.45,0,0,1,.78-.18,1.39,1.39,0,0,1,.73.16A.89.89,0,0,1,30,6a2.08,2.08,0,0,1,.11.69V7h-.79V6.63c0-.13,0-.24,0-.35A.52.52,0,0,0,29.2,6a.54.54,0,0,0-.61,0,.45.45,0,0,0-.12.26,2.13,2.13,0,0,0,0,.37v2a1.62,1.62,0,0,0,0,.41.42.42,0,0,0,.14.24.47.47,0,0,0,.28.08.41.41,0,0,0,.3-.1A.51.51,0,0,0,29.3,9a2,2,0,0,0,0-.36V8.24h.79V8.6a2.16,2.16,0,0,1-.11.71.91.91,0,0,1-.37.49A1.28,1.28,0,0,1,28.9,10Z" />
        <path d="M30.58,9.91V5.39h1.9V6H31.41v1.3h.84v.58h-.84V9.34h1.08v.57Z" />
        <path
            d="M32.87,10.67l-.07-.28a.58.58,0,0,0,.25-.15.49.49,0,0,0,.11-.33h-.4V9.16h.74v.69a.87.87,0,0,1-.16.56A.75.75,0,0,1,32.87,10.67Z" />
        <path
            d="M34.9,10V9.44a1.32,1.32,0,0,0,.3,0,.3.3,0,0,0,.18-.08.39.39,0,0,0,.09-.17,1.26,1.26,0,0,0,0-.3V5.39h.82V8.91a1.91,1.91,0,0,1-.09.63.67.67,0,0,1-.31.37,1.31,1.31,0,0,1-.62.12Z" />
        <path
            d="M38.14,10a1.46,1.46,0,0,1-.79-.19A1,1,0,0,1,37,9.27a2.81,2.81,0,0,1-.11-.82V5.39h.81V8.55c0,.14,0,.27,0,.39a.59.59,0,0,0,.14.31.49.49,0,0,0,.62,0,.59.59,0,0,0,.13-.31,2.38,2.38,0,0,0,0-.39V5.39h.8V8.45a2.81,2.81,0,0,1-.11.82,1,1,0,0,1-.38.52A1.42,1.42,0,0,1,38.14,10Z" />
        <path
            d="M41.09,10a1.44,1.44,0,0,1-.69-.16A1,1,0,0,1,40,9.35a2.31,2.31,0,0,1-.16-.75l.71-.14a2,2,0,0,0,.07.46.65.65,0,0,0,.16.31.4.4,0,0,0,.29.11.31.31,0,0,0,.28-.12.5.5,0,0,0,.09-.31.8.8,0,0,0-.14-.48,1.82,1.82,0,0,0-.36-.38l-.57-.5A1.87,1.87,0,0,1,40,7.08a1.26,1.26,0,0,1-.14-.62,1.06,1.06,0,0,1,.31-.83A1.24,1.24,0,0,1,41,5.34a1.19,1.19,0,0,1,.53.1.82.82,0,0,1,.34.27,1.17,1.17,0,0,1,.18.39,2.31,2.31,0,0,1,.08.47l-.7.12a3.53,3.53,0,0,0,0-.38.49.49,0,0,0-.13-.26A.37.37,0,0,0,41,6a.34.34,0,0,0-.28.12.44.44,0,0,0-.1.3.63.63,0,0,0,.1.38,1.22,1.22,0,0,0,.27.3l.56.5A2.29,2.29,0,0,1,42,8.1a1.43,1.43,0,0,1,.2.76,1.21,1.21,0,0,1-.14.58,1,1,0,0,1-.4.39A1.15,1.15,0,0,1,41.09,10Z" />
        <path d="M43.05,9.91V6h-.72V5.39h2.25V6h-.71V9.91Z" />
        <path d="M44.91,9.91V5.39h.81V9.91Z" />
        <path
            d="M47.53,10a1.32,1.32,0,0,1-.78-.2,1.06,1.06,0,0,1-.4-.53,2.67,2.67,0,0,1-.11-.78V6.85a2.71,2.71,0,0,1,.11-.8,1,1,0,0,1,.4-.53,1.41,1.41,0,0,1,.78-.18,1.39,1.39,0,0,1,.73.16.89.89,0,0,1,.38.45,2.08,2.08,0,0,1,.11.69V7H48V6.63c0-.13,0-.24,0-.35A.52.52,0,0,0,47.83,6a.54.54,0,0,0-.61,0,.45.45,0,0,0-.12.26,2.13,2.13,0,0,0,0,.37v2a1.62,1.62,0,0,0,0,.41.42.42,0,0,0,.14.24.47.47,0,0,0,.28.08.37.37,0,0,0,.29-.1A.44.44,0,0,0,47.93,9a2,2,0,0,0,0-.36V8.24h.79V8.6a2.16,2.16,0,0,1-.11.71.91.91,0,0,1-.37.49A1.31,1.31,0,0,1,47.53,10Z" />
        <path d="M49.21,9.91V5.39h1.9V6H50v1.3h.84v.58H50V9.34h1.08v.57Z" />
        <path d="M19.61,17.3l.9-4.52h.88l.91,4.52h-.77l-.17-1h-.79l-.19,1Zm1-1.56h.62L21,13.84Z" />
        <path d="M22.62,17.3V12.78h.57l1.1,2.58V12.78H25V17.3h-.55l-1.11-2.7v2.7Z" />
        <path
            d="M25.55,17.3V12.78h1.07a2,2,0,0,1,.86.15.9.9,0,0,1,.44.46,2.06,2.06,0,0,1,.13.8v1.65a2.17,2.17,0,0,1-.13.82.94.94,0,0,1-.43.49,2,2,0,0,1-.84.15Zm.83-.57h.25a.65.65,0,0,0,.41-.1.48.48,0,0,0,.15-.29,3.23,3.23,0,0,0,0-.48V14.13a2.45,2.45,0,0,0,0-.44.41.41,0,0,0-.17-.25.77.77,0,0,0-.39-.07h-.24Z" />
        <path
            d="M30.94,17.37a1.44,1.44,0,0,1-.69-.16,1,1,0,0,1-.41-.47,2.25,2.25,0,0,1-.16-.75l.71-.14a2,2,0,0,0,.07.46.65.65,0,0,0,.16.31.4.4,0,0,0,.29.11.31.31,0,0,0,.28-.12.5.5,0,0,0,.09-.31.83.83,0,0,0-.14-.48,2.1,2.1,0,0,0-.36-.38l-.57-.5a2,2,0,0,1-.38-.46,1.33,1.33,0,0,1-.14-.63A1.06,1.06,0,0,1,30,13a1.24,1.24,0,0,1,.86-.29,1.19,1.19,0,0,1,.53.1.82.82,0,0,1,.34.27,1.27,1.27,0,0,1,.18.39A2.31,2.31,0,0,1,32,14l-.7.12a3.53,3.53,0,0,0-.05-.38.49.49,0,0,0-.13-.26.37.37,0,0,0-.27-.1.34.34,0,0,0-.28.12.44.44,0,0,0-.1.3.63.63,0,0,0,.1.38,1.22,1.22,0,0,0,.27.3l.56.5a2.29,2.29,0,0,1,.48.55,1.43,1.43,0,0,1,.2.76,1.21,1.21,0,0,1-.14.58,1,1,0,0,1-.4.39A1.15,1.15,0,0,1,30.94,17.37Z" />
        <path d="M32.9,17.3V13.39h-.72v-.61h2.25v.61h-.71V17.3Z" />
        <path
            d="M34.73,17.3V12.78h1.09a2.46,2.46,0,0,1,.77.11.9.9,0,0,1,.48.37,1.34,1.34,0,0,1,.17.72,2.46,2.46,0,0,1-.05.49,1.05,1.05,0,0,1-.17.37.87.87,0,0,1-.34.24l.63,2.22h-.82l-.55-2.07h-.38V17.3Zm.83-2.59h.26a.81.81,0,0,0,.38-.07.36.36,0,0,0,.2-.22,1,1,0,0,0,.07-.39.92.92,0,0,0-.13-.52.57.57,0,0,0-.48-.17h-.3Z" />
        <path
            d="M39,17.37a1.4,1.4,0,0,1-.76-.18,1,1,0,0,1-.41-.52,2.3,2.3,0,0,1-.12-.79V14.19a2.3,2.3,0,0,1,.12-.79,1,1,0,0,1,.41-.5,1.5,1.5,0,0,1,.76-.17,1.56,1.56,0,0,1,.78.17,1,1,0,0,1,.4.5,2.08,2.08,0,0,1,.13.79v1.7a2.06,2.06,0,0,1-.13.78,1,1,0,0,1-.4.51A1.36,1.36,0,0,1,39,17.37Zm0-.61a.38.38,0,0,0,.44-.34,1.79,1.79,0,0,0,0-.34V14a1.72,1.72,0,0,0,0-.34.47.47,0,0,0-.13-.24.46.46,0,0,0-.31-.09.4.4,0,0,0-.29.09.42.42,0,0,0-.14.24,1.72,1.72,0,0,0,0,.34v2.08a1.79,1.79,0,0,0,0,.34.4.4,0,0,0,.13.25A.45.45,0,0,0,39,16.76Z" />
        <path d="M40.77,17.3V12.78h.57l1.1,2.58V12.78h.68V17.3h-.54l-1.11-2.7v2.7Z" />
        <path
            d="M44.83,17.37a1.27,1.27,0,0,1-.71-.19,1.05,1.05,0,0,1-.37-.54,2.59,2.59,0,0,1-.12-.83V14.29a2.88,2.88,0,0,1,.11-.83,1,1,0,0,1,.4-.54,1.36,1.36,0,0,1,.78-.19,1.39,1.39,0,0,1,.73.16.84.84,0,0,1,.4.45,1.85,1.85,0,0,1,.12.71v.23h-.79V14a2.09,2.09,0,0,0,0-.38.46.46,0,0,0-.12-.24.47.47,0,0,0-.3-.08.43.43,0,0,0-.32.11.56.56,0,0,0-.12.28,2.17,2.17,0,0,0,0,.38V16a2.37,2.37,0,0,0,0,.41.55.55,0,0,0,.15.27.45.45,0,0,0,.3.09.48.48,0,0,0,.31-.1.58.58,0,0,0,.15-.28,2.52,2.52,0,0,0,0-.43v-.42H45V15h1.23V17.3h-.53l-.06-.44a.82.82,0,0,1-.27.36A.76.76,0,0,1,44.83,17.37Z" />
        <path d="M19.86,24.7V20.17h.81V24.7Z" />
        <path d="M21.26,24.7V20.17h.58l1.1,2.58V20.17h.68V24.7h-.55L22,22V24.7Z" />
        <path
            d="M25.33,24.76a1.39,1.39,0,0,1-.68-.16,1,1,0,0,1-.41-.47,1.81,1.81,0,0,1-.16-.75l.71-.14a2.86,2.86,0,0,0,.06.46A.61.61,0,0,0,25,24a.39.39,0,0,0,.28.11.33.33,0,0,0,.29-.12.48.48,0,0,0,.08-.3.83.83,0,0,0-.13-.49,2.1,2.1,0,0,0-.36-.38l-.57-.5a1.64,1.64,0,0,1-.38-.46,1.22,1.22,0,0,1-.14-.63,1.06,1.06,0,0,1,.31-.83,1.22,1.22,0,0,1,.85-.29,1.24,1.24,0,0,1,.54.1.73.73,0,0,1,.33.27,1.09,1.09,0,0,1,.19.39,2.43,2.43,0,0,1,.08.47l-.71.12a2.11,2.11,0,0,0,0-.38.58.58,0,0,0-.13-.26.37.37,0,0,0-.27-.1.33.33,0,0,0-.28.13.41.41,0,0,0-.1.29.71.71,0,0,0,.09.38,1.91,1.91,0,0,0,.28.31l.56.49a2.29,2.29,0,0,1,.48.55,1.45,1.45,0,0,1,.2.77,1.1,1.1,0,0,1-.15.57.92.92,0,0,1-.39.39A1.16,1.16,0,0,1,25.33,24.76Z" />
        <path d="M27.29,24.7V20.78h-.72v-.61h2.26v.61h-.71V24.7Z" />
        <path d="M29.15,24.7V20.17H30V24.7Z" />
        <path d="M31,24.7V20.78h-.72v-.61h2.25v.61h-.71V24.7Z" />
        <path
            d="M34.09,24.76a1.38,1.38,0,0,1-.79-.19,1,1,0,0,1-.38-.52,2.81,2.81,0,0,1-.11-.82V20.17h.81v3.16c0,.14,0,.27,0,.4a.6.6,0,0,0,.14.3.49.49,0,0,0,.62,0,.59.59,0,0,0,.13-.3,2.6,2.6,0,0,0,0-.4V20.17h.8v3.06a2.81,2.81,0,0,1-.11.82,1,1,0,0,1-.38.52A1.34,1.34,0,0,1,34.09,24.76Z" />
        <path d="M36.35,24.7V20.78h-.72v-.61h2.25v.61h-.71V24.7Z" />
        <path d="M38.21,24.7V20.17H39V24.7Z" />
        <path
            d="M40.84,24.76a1.44,1.44,0,0,1-.77-.18,1,1,0,0,1-.4-.52,2.08,2.08,0,0,1-.13-.79V21.58a2.08,2.08,0,0,1,.13-.79,1,1,0,0,1,.4-.5,1.54,1.54,0,0,1,.77-.17,1.52,1.52,0,0,1,.77.17,1,1,0,0,1,.41.5,2.29,2.29,0,0,1,.13.79v1.7a2.27,2.27,0,0,1-.13.78,1.06,1.06,0,0,1-.41.52A1.42,1.42,0,0,1,40.84,24.76Zm0-.61a.41.41,0,0,0,.3-.09.4.4,0,0,0,.13-.25,1.18,1.18,0,0,0,0-.34V21.39a1.18,1.18,0,0,0,0-.34.41.41,0,0,0-.13-.24.41.41,0,0,0-.3-.09.45.45,0,0,0-.3.09.47.47,0,0,0-.13.24,1.72,1.72,0,0,0,0,.34v2.08a1.72,1.72,0,0,0,0,.34.4.4,0,0,0,.13.25A.43.43,0,0,0,40.84,24.15Z" />
        <path d="M42.64,24.7V20.17h.58l1.1,2.58V20.17H45V24.7h-.55L43.35,22V24.7Z" />
        <path
            d="M46.72,24.76A1.44,1.44,0,0,1,46,24.6a1,1,0,0,1-.41-.47,2.2,2.2,0,0,1-.16-.75l.71-.14a2,2,0,0,0,.07.46.61.61,0,0,0,.16.31.4.4,0,0,0,.29.11A.31.31,0,0,0,47,24a.49.49,0,0,0,.09-.3.84.84,0,0,0-.14-.49,2.1,2.1,0,0,0-.36-.38l-.56-.5a1.68,1.68,0,0,1-.39-.46,1.33,1.33,0,0,1-.14-.63,1.06,1.06,0,0,1,.31-.83,1.24,1.24,0,0,1,.86-.29,1.19,1.19,0,0,1,.53.1.82.82,0,0,1,.34.27,1.27,1.27,0,0,1,.18.39,2.43,2.43,0,0,1,.08.47l-.7.12a3.53,3.53,0,0,0,0-.38.49.49,0,0,0-.13-.26.37.37,0,0,0-.27-.1.34.34,0,0,0-.28.13.41.41,0,0,0-.1.29.63.63,0,0,0,.1.38,1.45,1.45,0,0,0,.27.31l.56.49a2.29,2.29,0,0,1,.48.55,1.45,1.45,0,0,1,.2.77,1.2,1.2,0,0,1-.14.57,1,1,0,0,1-.4.39A1.15,1.15,0,0,1,46.72,24.76Z" />
        <path
            d="M41.25,27.53a2.24,2.24,0,0,0-.43,1.59,2.23,2.23,0,0,0,1.07,1.25,2.25,2.25,0,0,0,.42-1.59,2.23,2.23,0,0,0-1.06-1.25" />
        <path
            d="M40.26,32.12a2.27,2.27,0,0,0,.43-1.59,2.23,2.23,0,0,0-1.07-1.24,2.2,2.2,0,0,0-.43,1.58,2.23,2.23,0,0,0,1.07,1.25" />
        <path d="M42.75,31.26a2,2,0,0,0,1.36.58A2.06,2.06,0,0,0,45.38,31,2,2,0,0,0,44,30.45a2.06,2.06,0,0,0-1.26.81" />
        <path
            d="M43.79,27.82a2.38,2.38,0,0,0-.5,1.66A2.28,2.28,0,0,0,44.92,29a2.41,2.41,0,0,0,.51-1.66,2.31,2.31,0,0,0-1.64.51" />
        <path d="M42.49,33.65a2,2,0,0,0,1.4-.54,2,2,0,0,0-1.21-.84,2.06,2.06,0,0,0-1.41.53,2,2,0,0,0,1.22.85" />
        <path d="M43.13,45.31H37.71a.77.77,0,0,0,0,1.54h5.42a.77.77,0,0,0,0-1.54" />
        <path d="M43.13,53.77H37.71a.77.77,0,0,0,0,1.53h5.42a.77.77,0,1,0,0-1.53" />
        <path d="M18.75,43.45l-.37-.1a3.29,3.29,0,0,0,.37.1" />
        <path
            d="M42.94,47.38h-5a.44.44,0,0,0-.44.44v1.52l-3.27.36-4.8-.11V46.66a14,14,0,0,0,1.91-.38c4.61-1.31,5.62-4.18,5.52-6.82s.76-3.73,2-4.19a5.62,5.62,0,0,1,1-.27,7.89,7.89,0,0,0,.44,2.34l.33,0A7.6,7.6,0,0,1,40.16,35a6.23,6.23,0,0,1,1.1,0,6.89,6.89,0,0,1-1-.74A5.12,5.12,0,0,1,42,31.33a9.53,9.53,0,0,0,1.23-1.44l-.28-.17a9.15,9.15,0,0,1-1.18,1.38,5.61,5.61,0,0,0-1.79,2.84c-.25-.23-.51-.49-.79-.8-1.14-1.27-2.6-.34-4.69,1.61s-4.71,2-7.28-.62c-3.38-3.46-6.34-3.44-8.36-3.25,1.38.59,1.87,1.89,2.57,5.18.73,3.45,2.59,5,5.12,5.23-1.17.19-1.48.35-3.37,1.65a5.89,5.89,0,0,1-4.39.51c1.55.48,3.38,2.1,5,2.66a12,12,0,0,0,3,.62v2.8l-9.09-.2v2l16.54-.37,3.27.36V52.8a.44.44,0,0,0,.44.44h5a.44.44,0,0,0,.43-.44v-5A.44.44,0,0,0,42.94,47.38Zm-15.4-.61c.36,0,.72,0,1.07,0v2.83l-1.07,0Z" />
        <path d="M17.19,51a.7.7,0,0,1-.64.75h-.39a.7.7,0,0,1-.64-.75V49.61a.7.7,0,0,1,.64-.74h.39a.7.7,0,0,1,.64.74Z" />
    </g>
</svg>