<svg width="51" height="61" viewBox="0 0 51 61" fill="none" xmlns="http://www.w3.org/2000/svg">
    <path
        d="M18.0435 41.889L16.1607 46.8835H1.8828L0 60.7391H13.6503L15.2977 56.228C16.0822 54.1335 18.1219 52.6835 20.3185 52.6835H43.7751L45.6579 38.8279H22.3582C20.4754 38.9085 18.7495 40.1168 18.0435 41.889Z"
        fill="#F5F5F5" />
    <path
        d="M17.965 36.814C18.7495 34.7196 20.7892 33.2696 22.9858 33.2696H38.5189L40.4017 19.414H24.9471C23.0643 19.414 21.3384 20.6223 20.7108 22.3945L18.828 27.4695H4.5501L2.6673 41.3251H16.3176L17.965 36.814Z"
        fill="#F5F5F5" />
    <path
        d="M23.2212 2.98057L21.3384 8.05558H7.0605L5.1777 21.8306H18.828L20.4754 17.3195C21.2599 15.2251 23.2996 13.775 25.4962 13.775H48.9528L50.8356 0H27.4575C25.5747 0 23.9272 1.20834 23.2212 2.98057Z"
        fill="#F5F5F5" />
</svg>